:version 1.10
:name ASF
:units
  mass 1
  length 1
  angle deg
:documentation
  ASF file generated by Kaydara
:root
  axis xyz
  order  tx ty tz rx ry rz
  position 0 0 0
  orientation 0 0 0
:bonedata
  begin
    id 1
    name RightUpLegDummy
    direction -0.718183 -0.695806 0.00816078
    length 4.904
    axis 0 0 0 xyz
  end
  begin
    id 2
    name RightUpLeg
    direction -0.0736652 -0.994202 0.0783343
    length 17.4976
    axis -2.72909 -3.00389 -4.00133 xyz
    dof rx ry rz
  end
  begin
    id 3
    name RightLeg
    direction -0.0389037 -0.994596 -0.0962598
    length 16.5821
    axis 3.95836 -18.5909 -4.46993 xyz
    dof rx ry rz
  end
  begin
    id 4
    name RightFoot
    direction -0.311643 -0.412678 0.855906
    length 3.77069
    axis -1.99483 -18.8351 -3.27644 xyz
    dof rx ry rz
  end
  begin
    id 5
    name RightToes
    direction -0.317852 0.0389852 0.947339
    length 3.85082
    axis -2.00228 -18.1713 -3.25211 xyz
    dof rx ry rz
  end
  begin
    id 6
    name SpineDummy
    direction 8.3039e-015 1 4.44677e-016
    length 4.6813
    axis 0 0 0 xyz
  end
  begin
    id 7
    name Spine
    direction -0.000262373 0.999988 0.00493267
    length 10.1015
    axis -0.00246081 0.00062579 0.0150362 xyz
    dof rx ry rz
  end
  begin
    id 8
    name Spine1
    direction 0 0 0
    length 0
    axis -0.00349562 0.000650293 0.0196666 xyz
    dof rx ry rz
  end
  begin
    id 9
    name HEadDummy
    direction -0.000343232 0.999999 0.00123745
    length 3.43865
    axis -0.00349562 0.000650293 0.0196666 xyz
  end
  begin
    id 10
    name HEad
    direction -0.0461221 0.980933 0.188796
    length 5.12695
    axis -0.00351404 -7.04812 0.0199272 xyz
    dof rx ry rz
  end
  begin
    id 11
    name LeftShoulder1Dummy
    direction 0.998904 -0.0399089 -0.0244534
    length 3.5433
    axis -0.00349562 0.000650293 0.0196666 xyz
  end
  begin
    id 12
    name LeftShoulder1
    direction 0.99951 1.64443e-005 0.0312999
    length 4.05031
    axis -0.00349562 0.000650293 0.0196666 xyz
    dof rx ry rz
  end
  begin
    id 13
    name LeftArm
    direction 0.984791 0.0515299 0.165927
    length 12.9126
    axis -64.823 -10.7743 5.20463 xyz
    dof rx ry rz
  end
  begin
    id 14
    name LeftForeArm
    direction 0.984968 0.0534808 0.16425
    length 10.8596
    axis -30.0462 -7.70601 1.87451 xyz
    dof rx ry rz
  end
  begin
    id 15
    name LeftHand
    direction 0.975871 0.0289682 0.216418
    length 6.62295
    axis -20.1348 -6.98077 1.86072 xyz
    dof rx ry rz
  end
  begin
    id 16
    name RightShoulderDummy
    direction -0.998877 -0.0405946 -0.0244307
    length 3.5433
    axis -0.00349562 0.000650293 0.0196666 xyz
  end
  begin
    id 17
    name RightShoulder
    direction -0.998933 -0.0249743 -0.0388558
    length 4.05031
    axis -0.0205316 -4.02113 1.41395 xyz
    dof rx ry rz
  end
  begin
    id 18
    name RightArm
    direction -0.997559 0.068664 0.0127103
    length 12.9638
    axis -67.3882 1.84188 -6.15987 xyz
    dof rx ry rz
  end
  begin
    id 19
    name RightForeArm
    direction -0.991508 0.0912848 0.0926241
    length 10.8312
    axis -22.1975 3.41087 -4.28711 xyz
    dof rx ry rz
  end
  begin
    id 20
    name RightHand
    direction -0.989262 0.0600788 0.133232
    length 6.57864
    axis -12.2911 2.17515 -4.39675 xyz
    dof rx ry rz
  end
  begin
    id 21
    name LeftUpLegDummy
    direction 0.718183 -0.695806 0.00816078
    length 4.904
    axis 0 0 0 xyz
  end
  begin
    id 22
    name LeftUpLeg
    direction 0.0831398 -0.99469 0.0606531
    length 17.4976
    axis -1.71016 2.29552 4.63832 xyz
    dof rx ry rz
  end
  begin
    id 23
    name LeftLeg
    direction 0.0498442 -0.991778 -0.117862
    length 16.5821
    axis 5.13757 15.5727 5.13348 xyz
    dof rx ry rz
  end
  begin
    id 24
    name LeftFoot
    direction 0.269026 -0.433896 0.85986
    length 3.77069
    axis -0.576502 15.6961 4.10267 xyz
    dof rx ry rz
  end
  begin
    id 25
    name LeftToes
    direction 0.277311 0.0251143 0.960452
    length 3.85048
    axis -0.576502 15.6961 4.10267 xyz
    dof rx ry rz
  end
:hierarchy
  begin
    root RightUpLegDummy SpineDummy LeftUpLegDummy
    RightUpLegDummy RightUpLeg
    RightUpLeg RightLeg
    RightLeg RightFoot
    RightFoot RightToes
    SpineDummy Spine
    Spine Spine1
    Spine1 HEadDummy LeftShoulder1Dummy RightShoulderDummy
    HEadDummy HEad
    LeftShoulder1Dummy LeftShoulder1
    LeftShoulder1 LeftArm
    LeftArm LeftForeArm
    LeftForeArm LeftHand
    RightShoulderDummy RightShoulder
    RightShoulder RightArm
    RightArm RightForeArm
    RightForeArm RightHand
    LeftUpLegDummy LeftUpLeg
    LeftUpLeg LeftLeg
    LeftLeg LeftFoot
    LeftFoot LeftToes
  end

:SAMPLES-PER-SECOND 30
:FULLY-SPECIFIED
:DEGREES
153
root  -6.15913 27.7848 34.276 16.0496 -15.8779 -5.92262
RightUpLeg  -70.5228 -4.8282 12.7523
RightLeg  87.0571 15.8702 -4.42673
RightFoot  -32.617 -0.214059 -1.89778
RightToes  -5.82073e-011 -3.18055e-015 -2.98177e-016
Spine  34.5989 0.612825 8.54814
Spine1  -6.41817 0.918973 4.72118
HEad  -45.7974 16.218 -6.51615
LeftShoulder1  -3.88251e-019 9.70628e-020 -3.87848e-018
LeftArm  -20.594 14.5149 -66.9006
LeftForeArm  -13.3498 -14.5655 -1.66368
LeftHand  -0.874343 -4.67926 10.7449
RightShoulder  5.099 9.63285 24.3199
RightArm  -1.72833 -8.66573 49.3429
RightForeArm  -9.06061 21.9578 -11.287
RightHand  -2.54199 7.5087 -22.4749
LeftUpLeg  -66.5667 5.5551 0.0370383
LeftLeg  88.1665 -14.6968 23.7047
LeftFoot  -37.8621 -2.46165 -10.7125
LeftToes  5.79026e-011 9.70705e-012 -3.73859e-011
154
root  -6.22484 28.3854 34.4814 14.7422 -15.0809 -5.78008
RightUpLeg  -67.2536 -6.1343 12.808
RightLeg  84.9704 15.7358 -4.60786
RightFoot  -32.3642 -0.310649 -2.49533
RightToes  -5.82073e-011 -3.18055e-015 -2.98177e-016
Spine  35.146 0.619961 9.61994
Spine1  -9.85282 1.51206 3.62021
HEad  -46.1004 15.0081 -5.48236
LeftShoulder1  -3.88251e-019 9.70628e-020 -3.87848e-018
LeftArm  -14.6119 -1.84986 -68.9475
LeftForeArm  -23.0019 -24.5616 1.80565
LeftHand  -0.931247 -6.06604 10.0081
RightShoulder  3.60432 8.68978 17.0498
RightArm  -0.268359 1.34921 59.0771
RightForeArm  -14.1309 31.5378 -16.379
RightHand  -3.50053 9.6358 -26.5135
LeftUpLeg  -63.5061 6.40709 -0.332611
LeftLeg  86.3322 -13.8531 22.2276
LeftFoot  -37.8318 -2.15628 -9.33807
LeftToes  5.79026e-011 9.70705e-012 -3.73859e-011
155
root  -6.34114 29.4335 34.7323 12.9907 -13.6648 -5.62069
RightUpLeg  -62.2335 -7.68622 12.6291
RightLeg  80.7861 15.4412 -4.65644
RightFoot  -31.062 -0.282551 -2.45602
RightToes  -5.82073e-011 -3.18055e-015 -2.98177e-016
Spine  35.8982 0.363318 10.1299
Spine1  -13.4063 1.58575 3.21103
HEad  -45.94 14.2679 -4.6532
LeftShoulder1  -3.88251e-019 9.70628e-020 -3.87848e-018
LeftArm  -11.0306 -15.7207 -69.3219
LeftForeArm  -28.8804 -35.1141 6.75101
LeftHand  -1.02537 -7.08448 10.1032
RightShoulder  1.92844 7.09677 8.28217
RightArm  -2.92872 8.99496 65.415
RightForeArm  -16.729 43.2521 -24.5081
RightHand  -4.33528 11.4837 -29.137
LeftUpLeg  -58.9099 6.97617 -0.271763
LeftLeg  82.6212 -12.4674 19.8477
LeftFoot  -36.5853 -1.68146 -7.58695
LeftToes  5.79026e-011 9.70705e-012 -3.73859e-011
156
root  -6.52948 30.9225 35.1544 11.666 -11.8824 -5.05624
RightUpLeg  -56.6622 -9.24653 11.9259
RightLeg  74.4856 14.7661 -5.71355
RightFoot  -28.9892 -0.122577 -1.58247
RightToes  -5.82073e-011 -3.18055e-015 -2.98177e-016
Spine  35.7867 -0.015506 9.59391
Spine1  -17.1385 1.11293 3.58952
HEad  -44.7928 13.712 -3.89566
LeftShoulder1  -3.88251e-019 9.70628e-020 -3.87848e-018
LeftArm  -10.9243 -25.3371 -68.119
LeftForeArm  -29.1132 -46.7102 10.5302
LeftHand  -1.15234 -8.25805 10.3566
RightShoulder  0.589882 5.17295 0.223784
RightArm  -7.07275 15.4351 67.521
RightForeArm  -21.329 53.9571 -36.4513
RightHand  -4.89416 12.7474 -30.5236
LeftUpLeg  -53.7223 7.20351 -0.427054
LeftLeg  76.7322 -10.7359 17.5513
LeftFoot  -34.401 -1.16361 -5.69235
LeftToes  5.79026e-011 9.70705e-012 -3.73859e-011
157
root  -6.78897 32.6092 35.8567 11.1588 -10.2268 -4.10201
RightUpLeg  -51.2703 -11.0229 11.0581
RightLeg  67.7243 13.8258 -6.70443
RightFoot  -26.5975 -0.0461848 -1.20281
RightToes  -5.82073e-011 -3.18055e-015 -2.98177e-016
Spine  35.0516 -0.459548 8.45532
Spine1  -21.8694 0.451379 3.81671
HEad  -42.2707 12.7633 -2.47815
LeftShoulder1  -3.88251e-019 9.70628e-020 -3.87848e-018
LeftArm  -11.3431 -33.2926 -63.3763
LeftForeArm  -29.5462 -58.4591 17.0509
LeftHand  -1.22646 -9.24275 10.268
RightShoulder  -0.280035 3.42064 -6.11925
RightArm  -11.9785 20.2589 65.1795
RightForeArm  -32.3564 62.1375 -53.5299
RightHand  -5.23182 13.7145 -30.9565
LeftUpLeg  -48.4203 8.31433 -1.4108
LeftLeg  69.708 -9.2005 15.1518
LeftFoot  -31.8838 -0.690546 -3.63234
LeftToes  5.79026e-011 9.70705e-012 -3.73859e-011
158
root  -7.02236 34.8719 36.6865 10.1768 -9.0095 -3.06772
RightUpLeg  -43.7008 -13.5597 9.81936
RightLeg  58.6298 13.9773 -4.60416
RightFoot  -20.4421 -0.0112554 -1.41993
RightToes  -5.82073e-011 -3.18055e-015 -2.98177e-016
Spine  33.9197 -1.11816 7.89605
Spine1  -26.0309 -0.217734 2.85543
HEad  -38.0679 11.0301 -0.25274
LeftShoulder1  -3.88251e-019 9.70628e-020 -3.87848e-018
LeftArm  -13.905 -36.3973 -56.3853
LeftForeArm  -35.4807 -70.4233 31.5331
LeftHand  -1.2896 -10.051 10.222
RightShoulder  -0.654964 2.67892 -9.52397
RightArm  -17.4281 21.0712 58.793
RightForeArm  -52.441 66.9292 -79.3805
RightHand  -5.29616 14.6605 -29.9206
LeftUpLeg  -40.8368 10.5889 -2.45061
LeftLeg  59.7169 -8.44549 10.9449
LeftFoot  -25.3429 -0.283523 -1.77883
LeftToes  5.79026e-011 9.70705e-012 -3.73859e-011
159
root  -7.23089 38.3062 37.6705 8.30771 -8.11054 -1.68017
RightUpLeg  -31.6894 -16.76 7.04803
RightLeg  41.8061 16.1659 -0.673346
RightFoot  -6.12536 -0.102106 0.704765
RightToes  -5.82073e-011 -3.18055e-015 -2.98177e-016
Spine  30.2197 -1.6587 7.47461
Spine1  -26.2795 -0.834627 1.00341
HEad  -31.531 8.91966 1.8766
LeftShoulder1  -3.88251e-019 9.70628e-020 -3.87848e-018
LeftArm  -17.2326 -34.3797 -48.4863
LeftForeArm  -73.391 -78.7946 74.8658
LeftHand  -1.26541 -10.1562 9.97
RightShoulder  -0.777076 2.69256 -10.7948
RightArm  -22.621 15.3469 51.9217
RightForeArm  -77.6272 66.0452 -110.614
RightHand  -4.90337 15.5663 -26.6345
LeftUpLeg  -29.0139 12.2495 -2.73546
LeftLeg  42.1899 -9.51409 5.23328
LeftFoot  -9.71047 0.0988499 -2.05792
LeftToes  5.79026e-011 9.70705e-012 -3.73859e-011
160
root  -7.53873 42.0509 39.1286 7.81945 -7.52803 0.370546
RightUpLeg  -18.3478 -14.7887 2.20264
RightLeg  19.0057 12.7702 0.624596
RightFoot  12.5441 -1.52535 6.30604
RightToes  -5.82073e-011 -3.18055e-015 -2.98177e-016
Spine  21.3764 -1.45431 5.50771
Spine1  -22.3395 -1.05294 -0.187581
HEad  -22.6863 7.61985 2.92242
LeftShoulder1  -3.88251e-019 9.70628e-020 -3.87848e-018
LeftArm  -19.3044 -26.9168 -38.6597
LeftForeArm  -128.852 -75.3478 131.966
LeftHand  -1.10555 -10.2209 8.73395
RightShoulder  -0.946253 1.82048 -12.5691
RightArm  -26.8786 4.94292 46.9388
RightForeArm  -94.8667 60.6924 -132.383
RightHand  -3.96355 15.953 -21.2958
LeftUpLeg  -16.202 8.90912 -2.53137
LeftLeg  19.4305 -9.11206 1.79433
LeftFoot  11.0545 1.43225 -6.32609
LeftToes  5.79026e-011 9.70705e-012 -3.73859e-011
161
root  -7.83907 44.9074 40.7043 10.2582 -7.70722 1.68805
RightUpLeg  -11.3378 -1.73078 -2.41003
RightLeg  5.18883 -2.97636 0.899389
RightFoot  24.7539 -3.93367 11.2533
RightToes  -5.82073e-011 -3.18055e-015 -2.98177e-016
Spine  9.791 -0.804418 3.46599
Spine1  -18.0975 -0.835238 0.264143
HEad  -13.5951 7.78008 3.08842
LeftShoulder1  -3.88251e-019 9.70628e-020 -3.87848e-018
LeftArm  -19.4713 -14.803 -25.5463
LeftForeArm  -150.539 -66.5883 153.081
LeftHand  -0.704769 -10.5914 5.54694
RightShoulder  -1.13941 -0.262737 -15.119
RightArm  -29.1761 -5.95137 40.8153
RightForeArm  -104.282 56.0865 -142.46
RightHand  -3.0989 16.1443 -16.6915
LeftUpLeg  -9.82485 -0.959252 -1.63076
LeftLeg  5.79817 -0.847717 1.4873
LeftFoot  24.6991 3.67051 -10.6653
LeftToes  5.79026e-011 9.70705e-012 -3.73859e-011
162
root  -7.92937 47.1835 41.6658 12.9637 -8.55535 1.13656
RightUpLeg  -14.4213 -7.59466 -0.27939
RightLeg  14.3566 5.19821 1.91508
RightFoot  24.4306 -4.74611 13.6013
RightToes  -5.82073e-011 -3.18055e-015 -2.98177e-016
Spine  3.02262 -0.220978 4.25515
Spine1  -16.7131 -0.381708 1.06767
HEad  -7.59761 8.53638 3.40322
LeftShoulder1  -3.88251e-019 9.70628e-020 -3.87848e-018
LeftArm  -18.9332 -0.425205 -8.84519
LeftForeArm  -165.115 -60.3348 160.345
LeftHand  -0.0682633 -9.87271 0.807345
RightShoulder  -1.13946 -1.49964 -15.5515
RightArm  -29.3034 -14.4672 27.3678
RightForeArm  -113.35 54.38 -145.834
RightHand  -3.41355 17.1553 -17.5181
LeftUpLeg  -12.2301 1.43403 -1.98551
LeftLeg  12.7885 -2.22443 3.11098
LeftFoot  26.6723 3.91516 -10.5639
LeftToes  5.79026e-011 9.70705e-012 -3.73859e-011
163
root  -7.87873 48.4999 41.9386 12.4834 -9.24597 -0.138812
RightUpLeg  -20.369 -21.9532 4.68365
RightLeg  39.827 26.2021 7.47996
RightFoot  17.0405 -3.93629 14.1619
RightToes  -5.82073e-011 -3.18055e-015 -2.98177e-016
Spine  3.72156 -0.0102663 6.47901
Spine1  -15.6953 0.101601 0.968423
HEad  -6.76309 9.0812 4.05056
LeftShoulder1  -3.88251e-019 9.70628e-020 -3.87848e-018
LeftArm  -16.8575 14.7286 9.38241
LeftForeArm  178.05 -60.8793 161.274
LeftHand  0.422254 -7.68727 -3.56897
RightShoulder  -0.960004 -1.11035 -12.6852
RightArm  -29.7398 -21.1009 7.23535
RightForeArm  -127.379 55.8832 -144.803
RightHand  -5.64589 17.9203 -27.0797
LeftUpLeg  -17.7272 9.63072 -1.86051
LeftLeg  35.7015 -9.41718 4.30141
LeftFoot  23.0917 2.60005 -7.74421
LeftToes  5.79026e-011 9.70705e-012 -3.73859e-011
164
root  -7.81185 48.9402 41.8483 10.1522 -9.46452 -0.849158
RightUpLeg  -24.6327 -17.7607 4.5218
RightLeg  67.8502 22.6999 15.7343
RightFoot  8.90216 -2.52038 12.5875
RightToes  -5.82073e-011 -3.18055e-015 -2.98177e-016
Spine  4.91803 -0.45288 6.99086
Spine1  -8.92577 0.0965254 1.57955
HEad  -9.94105 10.0441 4.20313
LeftShoulder1  -3.88251e-019 9.70628e-020 -3.87848e-018
LeftArm  -10.1585 30.7915 24.5806
LeftForeArm  170.17 -69.177 153.993
LeftHand  0.645447 -5.84718 -6.58456
RightShoulder  -0.664512 -0.925142 -8.20592
RightArm  -30.1743 -28.9684 -9.84931
RightForeArm  -144.037 60.4823 -138.35
RightHand  -7.76338 16.2107 -39.7941
LeftUpLeg  -22.6341 12.0222 -0.586776
LeftLeg  61.2672 -11.889 4.28077
LeftFoot  20.9786 1.72813 -5.45643
LeftToes  5.79026e-011 9.70705e-012 -3.73859e-011
165
root  -7.77937 49.5091 41.6501 9.42124 -9.35026 -0.913811
RightUpLeg  -30.8823 -15.2657 4.99832
RightLeg  89.7526 16.236 14.3535
RightFoot  2.67171 -1.46377 10.3685
RightToes  -5.82073e-011 -3.18055e-015 -2.98177e-016
Spine  3.01869 -0.973439 5.39149
Spine1  0.884044 -0.664707 3.88658
HEad  -13.7046 12.2008 3.4328
LeftShoulder1  -3.88251e-019 9.70628e-020 -3.87848e-018
LeftArm  -0.897493 44.9545 34.4534
LeftForeArm  -150.234 -80.457 109.155
LeftHand  0.710018 -6.03225 -7.20908
RightShoulder  -0.403308 -1.11635 -4.15586
RightArm  -28.5603 -38.1063 -18.6127
RightForeArm  -152.575 66.5935 -122.295
RightHand  -3.81456 9.14339 -29.8687
LeftUpLeg  -29.8022 11.8598 -0.16018
LeftLeg  83.4607 -13.2817 4.89449
LeftFoot  20.4807 1.0427 -3.26137
LeftToes  5.79026e-011 9.70705e-012 -3.73859e-011
166
root  -7.75715 49.8469 41.3279 10.1618 -9.08599 -0.51932
RightUpLeg  -38.3165 -12.725 5.4364
RightLeg  107.215 13.7547 6.13958
RightFoot  -0.987347 -0.864081 8.00035
RightToes  -5.82073e-011 -3.18055e-015 -2.98177e-016
Spine  2.76641 -1.37594 3.23787
Spine1  5.33165 -1.71965 5.87125
HEad  -15.8569 14.8492 2.41404
LeftShoulder1  -3.88251e-019 9.70628e-020 -3.87848e-018
LeftArm  7.42005 53.6284 39.5246
LeftForeArm  -63.6655 -69.07 25.702
LeftHand  0.522744 -7.7054 -4.53156
RightShoulder  -0.163966 -0.557592 -1.34931
RightArm  -23.2327 -45.4204 -23.7504
RightForeArm  -131.641 69.8245 -89.3002
RightHand  -2.35196 10.1752 -17.5485
LeftUpLeg  -39.7194 10.8261 -0.946127
LeftLeg  102.289 -15.1475 6.68012
LeftFoot  20.2347 -0.408725 1.54932
LeftToes  5.79026e-011 9.70705e-012 -3.73859e-011
167
root  -7.70701 49.6418 41.0082 9.96487 -8.86013 0.0677921
RightUpLeg  -42.5845 -10.307 5.07956
RightLeg  118.211 15.9771 -0.797633
RightFoot  -3.18165 -0.293073 3.31646
RightToes  -5.82073e-011 -3.18055e-015 -2.98177e-016
Spine  6.81676 -1.6872 2.08387
Spine1  4.36464 -2.23449 5.77465
HEad  -17.3901 16.6335 1.7426
LeftShoulder1  -3.88251e-019 9.70628e-020 -3.87848e-018
LeftArm  12.6076 58.0765 40.3876
LeftForeArm  -44.8901 -48.654 11.0669
LeftHand  0.0642603 -8.00975 -0.203169
RightShoulder  0.164917 0.757434 1.06458
RightArm  -13.7792 -49.5072 -29.1999
RightForeArm  -96.4642 64.197 -51.093
RightHand  -1.87915 7.20443 -17.2445
LeftUpLeg  -47.7662 9.51163 -2.32389
LeftLeg  114.304 -17.932 9.40432
LeftFoot  20.1917 -2.15482 7.39173
LeftToes  5.79026e-011 9.70705e-012 -3.73859e-011
